<?xml version="1.0" encoding="UTF-8" standalone="no"?><svg xmlns="http://www.w3.org/2000/svg" xmlns:xlink="http://www.w3.org/1999/xlink" data-name="Слой 2" fill="#000000" height="546.7" preserveAspectRatio="xMidYMid meet" version="1" viewBox="-3.5 0.0 1597.8 546.7" width="1597.8" zoomAndPan="magnify"><g data-name="Слой 1"><g><g id="change1_1"><path d="M1425.49,25.32c-65.13-8.17-447.69-8.88-698.24-8.06-235.51,.77,363.29-5.04-443.15-5.04C133.46,12.22,34.84,37.41,15.22,121.55c-7.3,31.33,19.84,150.6,20.95,174.2,2.97,63.19,3.37,126.47-.09,189.64-1.1,20.04,.24,31.8,.24,31.8,33.72-34.06,68.86-63.19,104.06-88.15,34.54,7.98,177,36.66,586.66,36.66,654.71,0,724.46,12.54,763.34-40.81,36.35-49.88,103.88-378.41-64.89-399.57Z" fill="#8c52ff"/></g><g id="change2_1"><path d="M25.61,546.7l-3.22-28.3c-.06-.52-1.43-12.89-.29-33.59,3.24-59.07,3.27-120.75,.09-188.56-.33-7.05-3.51-25.17-7.19-46.15C4.66,191.14-3.49,140.58,1.51,119.11,11.8,75.02,43.29,43.04,95.12,24.06,139.97,7.65,200.02,0,284.1,0c163.42,0,282.5,.24,353.94,.72,30.54,.21,53.17,.46,67.25,.76,6.57,.14,11.33,.28,14.55,.44,1.89,.1,3.24,.2,4.12,.3,3.46,.38,6.09,1.43,8.05,2.8,150.66-.47,620.68-1.18,695.46,8.2,42.43,5.32,74.4,27.88,95,67.05,32.77,62.27,27.91,152.25,22.1,200.35-7.77,64.35-25.6,127.78-42.39,150.82-19.85,27.23-47.76,38.16-110.64,43.29-64.06,5.23-167.82,4.78-356.18,3.98-83.08-.36-186.49-.8-308.33-.8s-435.47-3.5-583.27-35.5c-34.71,25.06-67.27,52.88-96.87,82.77l-21.29,21.51ZM284.1,24.44C121.51,24.44,45.2,54.21,28.93,123.99c-4.41,18.94,6.51,81.21,13.73,122.42,3.96,22.59,7.09,40.44,7.49,48.84,3.21,68.42,3.18,130.71-.08,190.42,25.51-23.62,52.81-45.78,81.49-66.11l5.52-3.91,6.88,1.59c47.2,10.9,198.5,36.25,583.08,36.25,121.92,0,225.36,.44,308.47,.8,360.21,1.53,415.58,1.78,443.07-35.95,12.51-17.17,30.21-74.33,38.17-140.27,9.51-78.75,2.52-145.37-19.7-187.59-16.62-31.58-40.68-48.94-73.55-53.06-58.58-7.34-398.04-8.91-696.2-7.94-21.67,.07-36.87,.09-46.44,.05-4.74-.02-8.05-.05-10.18-.09-1.27-.02-2.19-.06-2.79-.09-4.45-.23-7.88-1.82-10.21-4.04-60.07-.5-172.13-.87-373.58-.87Z" fill="#1c1c1c"/></g></g></g></svg>